<?xml version="1.0" standalone="no"?>
<!DOCTYPE svg PUBLIC "-//W3C//DTD SVG 20010904//EN"
 "http://www.w3.org/TR/2001/REC-SVG-20010904/DTD/svg10.dtd">
<svg version="1.0" xmlns="http://www.w3.org/2000/svg"
 width="594.000000pt" height="190.000000pt" viewBox="0 0 594.000000 190.000000"
 preserveAspectRatio="xMidYMid meet">

<g transform="translate(0.000000,190.000000) scale(0.100000,-0.100000)"
fill="#000000" stroke="none">
<path d="M2779 1709 c-124 -60 -240 -142 -348 -246 -64 -62 -106 -95 -126 -98
-22 -5 -60 5 -135 33 -169 63 -209 75 -274 75 -43 0 -73 -6 -103 -21 -40 -21
-143 -101 -233 -181 l-45 -40 65 6 c63 6 68 9 168 90 56 45 114 86 129 89 20
5 71 -8 183 -46 85 -29 161 -56 168 -60 8 -4 -26 -31 -93 -72 -99 -61 -105
-67 -85 -78 19 -10 37 -3 143 56 179 98 242 141 340 233 91 85 207 166 312
219 l61 30 59 -45 c96 -72 463 -313 500 -329 44 -18 111 -18 165 1 62 22 90
19 143 -15 87 -55 125 -70 175 -70 82 0 150 -28 210 -86 62 -60 236 -148 230
-116 -2 9 -30 31 -63 47 -50 25 -61 35 -63 59 -2 15 -16 39 -30 51 l-27 23 21
24 c28 29 42 73 23 66 -81 -31 -202 -68 -207 -64 -3 3 -3 8 -1 10 15 12 226
129 234 129 6 0 55 -28 109 -62 135 -86 155 -94 230 -86 61 7 65 6 166 -45
105 -53 125 -54 118 -10 -2 16 -24 34 -78 63 -73 40 -77 42 -195 47 -137 6
-165 17 -217 81 -77 96 -126 95 -310 -7 -105 -57 -144 -73 -161 -68 -12 4 -55
29 -95 56 -90 61 -120 67 -210 39 -80 -24 -104 -26 -135 -9 -12 6 -128 84
-257 173 -129 89 -249 170 -267 179 -52 26 -101 20 -194 -25z"/>
<path d="M4495 1676 c-38 -17 -90 -72 -104 -109 -26 -69 -8 -156 44 -211 52
-54 147 -72 218 -42 35 14 97 78 97 100 0 7 -18 18 -40 25 -37 11 -42 10 -58
-9 -25 -31 -84 -42 -124 -21 -74 37 -69 145 7 177 44 18 96 5 119 -28 15 -21
16 -21 61 -4 l45 18 -19 26 c-28 40 -63 69 -94 81 -39 15 -116 13 -152 -3z"/>
<path d="M2792 1566 c-40 -24 -112 -77 -160 -118 -145 -125 -388 -295 -485
-339 -23 -10 -24 -14 -14 -36 15 -34 35 -27 217 77 85 48 171 96 192 106 41
19 74 13 64 -12 -5 -13 -1 -15 20 -10 14 4 70 7 124 7 109 0 201 -19 268 -56
23 -13 42 -22 42 -20 0 2 -23 30 -51 62 -52 59 -88 123 -89 157 0 17 6 18 75
12 41 -4 75 -4 75 -1 0 8 -193 215 -200 215 -3 0 -38 -20 -78 -44z"/>
<path d="M270 871 l0 -621 170 0 170 0 0 194 0 193 133 6 c177 7 257 34 354
121 93 84 133 182 133 326 0 146 -47 248 -143 314 -110 75 -133 79 -494 84
l-323 4 0 -621z m526 338 c17 -5 42 -21 55 -35 21 -23 24 -35 24 -104 0 -70
-3 -81 -25 -105 -37 -41 -81 -55 -165 -55 l-75 0 0 154 c0 139 2 155 18 158
29 6 135 -2 168 -13z"/>
<path d="M766 977 c-68 -36 -75 -42 -52 -45 34 -4 115 35 134 66 20 31 9 28
-82 -21z"/>
<path d="M1826 1282 l-59 -37 39 -7 c73 -13 80 -11 92 29 11 35 9 53 -6 53 -4
-1 -34 -17 -66 -38z"/>
<path d="M3594 1254 c-38 -13 -71 -25 -74 -26 -3 -1 36 -4 85 -7 80 -5 90 -8
90 -25 0 -27 18 -30 44 -9 l22 18 -28 33 c-37 43 -57 45 -139 16z"/>
<path d="M1294 1223 c-47 -14 -50 -16 -46 -42 4 -28 5 -28 43 -18 21 5 39 13
39 17 0 5 25 14 56 21 33 7 50 15 42 20 -27 15 -85 15 -134 2z"/>
<path d="M1477 1200 c-55 -10 -105 -21 -113 -24 -11 -4 -14 -32 -14 -131 l0
-125 26 0 c15 0 59 12 98 27 60 23 87 27 176 27 82 1 112 -3 137 -17 30 -16
53 -44 53 -64 0 -5 -53 -14 -117 -21 -245 -24 -359 -78 -421 -197 -35 -68 -38
-205 -6 -276 81 -176 306 -231 487 -119 27 17 50 30 53 30 2 0 4 -13 4 -30 l0
-30 161 0 160 0 -3 368 c-3 357 -4 368 -25 413 -42 84 -109 135 -218 166 -84
24 -322 26 -438 3z m361 -612 l-3 -83 -45 -23 c-59 -31 -144 -27 -172 8 -20
25 -24 80 -7 112 14 25 69 49 139 58 100 13 91 20 88 -72z"/>
<path d="M2597 1205 c-118 -33 -227 -116 -277 -214 -73 -145 -76 -369 -6 -518
46 -96 102 -155 190 -198 82 -40 149 -55 252 -55 301 0 484 191 484 505 0 246
-125 425 -335 480 -72 18 -241 19 -308 0z m238 -249 c51 -34 69 -96 70 -236 0
-112 -2 -130 -24 -174 -62 -125 -234 -104 -271 34 -14 52 -14 228 0 281 12 43
53 96 84 110 31 13 111 5 141 -15z"/>
<path d="M2717 938 c-32 -11 -62 -29 -68 -39 -10 -19 -8 -20 63 -14 142 11
155 17 121 47 -30 26 -55 27 -116 6z"/>
<path d="M3823 1201 c-28 -9 -70 -30 -93 -45 -45 -30 -60 -27 -60 10 0 23 -3
24 -67 25 -38 0 -108 1 -158 2 l-90 1 -3 -472 -2 -472 160 0 160 0 0 318 c0
174 4 322 8 328 24 37 146 59 192 34 36 -19 42 -65 47 -360 2 -157 3 -293 3
-302 0 -16 14 -18 161 -18 l160 0 -3 363 c-3 328 -5 367 -23 417 -28 78 -102
153 -174 174 -71 21 -153 20 -218 -3z"/>
<path d="M5120 1213 c-87 -14 -187 -36 -196 -44 -6 -5 -9 -23 -8 -41 1 -18 3
-72 3 -119 1 -64 5 -88 15 -92 7 -3 54 8 102 25 175 61 354 43 366 -37 3 -18
-7 -21 -112 -32 -208 -24 -311 -61 -380 -140 -98 -111 -93 -299 11 -417 94
-107 290 -123 432 -36 27 17 50 30 53 30 2 0 4 -13 4 -30 l0 -30 161 0 160 0
-3 363 c-3 356 -3 363 -27 414 -44 99 -138 159 -283 183 -61 9 -246 12 -298 3z
m290 -622 l0 -79 -37 -24 c-50 -31 -150 -33 -182 -4 -23 21 -29 83 -11 117 19
35 105 64 203 68 l27 1 0 -79z"/>
<path d="M4428 1192 c-17 -3 -18 -34 -18 -473 l0 -469 160 0 160 0 0 473 0
472 -143 0 c-78 1 -150 -1 -159 -3z"/>
<path d="M3235 1118 c-44 -17 -82 -32 -84 -34 -2 -1 6 -16 18 -33 12 -17 31
-51 42 -76 21 -47 29 -51 88 -39 26 6 31 11 31 35 0 23 -5 29 -22 30 l-23 0
23 9 c20 8 22 16 22 75 0 36 -3 65 -7 65 -5 -1 -44 -15 -88 -32z"/>
<path d="M1266 1112 c-2 -4 -7 -29 -11 -57 l-6 -50 25 44 c14 23 26 47 26 51
0 11 -28 21 -34 12z"/>
<path d="M2312 1064 c-24 -14 -41 -28 -38 -31 9 -10 61 17 74 37 15 25 16 25
-36 -6z"/>
<path d="M4750 1026 c0 -32 3 -35 47 -50 25 -9 48 -14 51 -11 7 7 -27 57 -52
77 -32 27 -46 22 -46 -16z"/>
<path d="M1640 930 c-25 -16 -39 -30 -31 -30 15 0 101 47 101 55 0 12 -29 1
-70 -25z"/>
<path d="M4750 900 c0 -48 1 -50 45 -76 25 -14 49 -24 52 -20 6 5 -83 146 -93
146 -2 0 -4 -22 -4 -50z"/>
</g>
</svg>
